# Blender v2.78 (sub 0) OBJ File: 'Toybone.blend'
# www.blender.org
mtllib Toybone.mtl
o Toybone_Circle.002
v 0.158102 0.327679 0.056129
v 0.158102 0.286589 0.097219
v 0.195753 0.356850 0.055076
v 0.200237 0.300211 0.084364
v 0.368382 0.382067 0.064881
v 0.360967 0.327639 0.092750
v 0.320226 0.329887 0.120125
v 0.321578 0.403668 0.083020
v 0.257607 0.399103 0.082572
v 0.259818 0.324667 0.117198
v 0.000000 0.337629 0.061874
v 0.000000 0.292334 0.107168
v -0.158102 0.327679 0.056129
v -0.158102 0.286589 0.097219
v -0.195753 0.356850 0.055076
v -0.200237 0.300211 0.084364
v -0.368382 0.382067 0.064881
v -0.360967 0.327639 0.092750
v -0.320226 0.329887 0.120125
v -0.321578 0.403668 0.083020
v -0.257607 0.399103 0.082572
v -0.259818 0.324667 0.117198
v 0.158102 0.117405 0.056129
v 0.158102 0.158494 0.097219
v 0.158102 0.222542 0.112259
v 0.195753 0.088234 0.055076
v 0.200237 0.144872 0.084364
v 0.196531 0.222542 0.090458
v 0.368382 0.063017 0.064881
v 0.360967 0.117444 0.092750
v 0.341486 0.222542 0.059789
v 0.320226 0.115197 0.120125
v 0.321578 0.041416 0.083020
v 0.322377 0.222542 0.079315
v 0.264174 0.222542 0.079781
v 0.257607 0.045981 0.082572
v 0.259818 0.120417 0.117198
v 0.000000 0.107455 0.061874
v 0.000000 0.152750 0.107168
v 0.000000 0.222542 0.123748
v -0.158102 0.117405 0.056129
v -0.158102 0.158494 0.097219
v -0.158102 0.222542 0.112259
v -0.195753 0.088234 0.055076
v -0.200237 0.144872 0.084364
v -0.196530 0.222542 0.090458
v -0.368382 0.063017 0.064881
v -0.360967 0.117444 0.092750
v -0.341486 0.222542 0.059789
v -0.320226 0.115197 0.120125
v -0.321578 0.041416 0.083020
v -0.322377 0.222542 0.079315
v -0.264174 0.222542 0.079781
v -0.257607 0.045981 0.082572
v -0.259818 0.120417 0.117198
v 0.158102 0.327679 -0.056129
v 0.158102 0.286589 -0.097219
v 0.195753 0.356850 -0.055076
v 0.200237 0.300211 -0.084364
v 0.368382 0.382067 -0.064881
v 0.360967 0.327639 -0.092750
v 0.320226 0.329887 -0.120125
v 0.321578 0.403668 -0.083020
v 0.257607 0.399103 -0.082572
v 0.259818 0.324667 -0.117198
v 0.257390 0.433038 0.000000
v 0.000000 0.337629 -0.061874
v 0.000000 0.292334 -0.107168
v -0.158102 0.327679 -0.056129
v -0.158102 0.286589 -0.097219
v -0.195753 0.356850 -0.055076
v -0.200237 0.300211 -0.084364
v -0.368382 0.382067 -0.064881
v -0.360967 0.327639 -0.092750
v -0.320226 0.329887 -0.120125
v -0.321578 0.403668 -0.083020
v -0.257607 0.399103 -0.082572
v -0.259818 0.324667 -0.117198
v -0.257390 0.433038 0.000000
v 0.158102 0.342719 0.000000
v 0.188677 0.371225 0.000000
v 0.371719 0.403454 0.000000
v 0.324054 0.436080 0.000000
v 0.403677 0.298072 0.000000
v 0.000000 0.354208 0.000000
v -0.158102 0.342719 0.000000
v -0.188676 0.371225 0.000000
v -0.371719 0.403454 0.000000
v -0.324053 0.436080 0.000000
v -0.403677 0.298072 0.000000
v 0.158102 0.117405 -0.056129
v 0.158102 0.158494 -0.097219
v 0.158102 0.222542 -0.112259
v 0.195753 0.088234 -0.055076
v 0.200237 0.144872 -0.084364
v 0.196531 0.222542 -0.090458
v 0.368382 0.063017 -0.064881
v 0.360967 0.117444 -0.092750
v 0.341486 0.222542 -0.059789
v 0.320226 0.115197 -0.120125
v 0.321578 0.041416 -0.083020
v 0.322377 0.222542 -0.079315
v 0.264174 0.222542 -0.079781
v 0.257607 0.045981 -0.082572
v 0.259818 0.120417 -0.117198
v 0.257390 0.012045 0.000000
v 0.000000 0.107455 -0.061874
v 0.000000 0.152750 -0.107168
v 0.000000 0.222542 -0.123748
v -0.158102 0.117405 -0.056129
v -0.158102 0.158494 -0.097219
v -0.158102 0.222542 -0.112259
v -0.195753 0.088234 -0.055076
v -0.200237 0.144872 -0.084364
v -0.196530 0.222542 -0.090458
v -0.368382 0.063017 -0.064881
v -0.360967 0.117444 -0.092750
v -0.341486 0.222542 -0.059789
v -0.320226 0.115197 -0.120125
v -0.321578 0.041416 -0.083020
v -0.322377 0.222542 -0.079315
v -0.264174 0.222542 -0.079781
v -0.257607 0.045981 -0.082572
v -0.259818 0.120417 -0.117198
v -0.257390 0.012045 0.000000
v 0.158102 0.102365 0.000000
v 0.188677 0.073859 0.000000
v 0.371719 0.041630 0.000000
v 0.324054 0.009004 0.000000
v 0.376212 0.222542 0.000000
v 0.403677 0.147012 0.000000
v 0.000000 0.090876 0.000000
v -0.158102 0.102365 0.000000
v -0.188676 0.073859 0.000000
v -0.371719 0.041630 0.000000
v -0.324053 0.009004 0.000000
v -0.376212 0.222542 0.000000
v -0.403677 0.147012 0.000000
vt 0.4993 0.3777
vt 0.6484 0.3757
vt 0.6414 0.4312
vt 0.4993 0.4327
vt 0.4993 0.3203
vt 0.6456 0.3185
vt 0.4993 0.2571
vt 0.6417 0.2571
vt 0.6877 0.3325
vt 0.6903 0.3932
vt 0.6830 0.2571
vt 0.6768 0.4439
vt 0.7949 0.3909
vt 0.7849 0.3432
vt 0.8153 0.3424
vt 0.8270 0.3796
vt 0.7966 0.2571
vt 0.8201 0.2571
vt 0.8222 0.4524
vt 0.8603 0.4186
vt 0.7446 0.2571
vt 0.7463 0.3421
vt 0.7537 0.3958
vt 0.7625 0.4679
vt 0.8948 0.3294
vt 0.8826 0.2571
vt 0.3572 0.4312
vt 0.3503 0.3757
vt 0.3531 0.3185
vt 0.3570 0.2571
vt 0.3084 0.3932
vt 0.3110 0.3325
vt 0.3156 0.2571
vt 0.3219 0.4439
vt 0.2038 0.3909
vt 0.1717 0.3796
vt 0.1834 0.3424
vt 0.2138 0.3432
vt 0.1786 0.2571
vt 0.2020 0.2571
vt 0.1765 0.4524
vt 0.1384 0.4186
vt 0.2540 0.2571
vt 0.2524 0.3421
vt 0.2450 0.3958
vt 0.2362 0.4679
vt 0.1039 0.3294
vt 0.1160 0.2571
vt 0.4993 0.1366
vt 0.4993 0.0816
vt 0.6414 0.0831
vt 0.6484 0.1386
vt 0.4993 0.1940
vt 0.6456 0.1958
vt 0.6903 0.1211
vt 0.6877 0.1817
vt 0.6768 0.0704
vt 0.7948 0.1234
vt 0.8270 0.1346
vt 0.8153 0.1718
vt 0.7848 0.1711
vt 0.8222 0.0619
vt 0.8602 0.0957
vt 0.7463 0.1722
vt 0.7536 0.1184
vt 0.7625 0.0464
vt 0.8948 0.1848
vt 0.3503 0.1386
vt 0.3572 0.0831
vt 0.3531 0.1958
vt 0.3110 0.1817
vt 0.3084 0.1211
vt 0.3219 0.0704
vt 0.2038 0.1234
vt 0.2138 0.1711
vt 0.1834 0.1718
vt 0.1717 0.1346
vt 0.1765 0.0619
vt 0.1385 0.0957
vt 0.2524 0.1722
vt 0.2451 0.1184
vt 0.2362 0.0464
vt 0.1039 0.1848
vt 0.4969 0.8501
vt 0.4969 0.9051
vt 0.6390 0.9036
vt 0.6459 0.8481
vt 0.4969 0.7927
vt 0.6431 0.7910
vt 0.4969 0.7296
vt 0.6392 0.7296
vt 0.6878 0.8657
vt 0.6853 0.8050
vt 0.6806 0.7296
vt 0.6743 0.9163
vt 0.7924 0.8634
vt 0.8246 0.8521
vt 0.8129 0.8149
vt 0.7824 0.8156
vt 0.8176 0.7296
vt 0.7942 0.7296
vt 0.8197 0.9249
vt 0.8578 0.8910
vt 0.7422 0.7296
vt 0.7439 0.8146
vt 0.7512 0.8683
vt 0.7601 0.9404
vt 0.8924 0.8019
vt 0.8802 0.7296
vt 0.3479 0.8481
vt 0.3548 0.9036
vt 0.3506 0.7910
vt 0.3545 0.7296
vt 0.3085 0.8050
vt 0.3060 0.8657
vt 0.3132 0.7296
vt 0.3194 0.9163
vt 0.2014 0.8634
vt 0.2114 0.8156
vt 0.1809 0.8149
vt 0.1692 0.8521
vt 0.1996 0.7296
vt 0.1762 0.7296
vt 0.1740 0.9249
vt 0.1360 0.8910
vt 0.2516 0.7296
vt 0.2499 0.8146
vt 0.2426 0.8683
vt 0.2337 0.9404
vt 0.1014 0.8019
vt 0.1136 0.7296
vt 0.4969 0.6091
vt 0.6459 0.6111
vt 0.6390 0.5556
vt 0.4969 0.5541
vt 0.4969 0.6665
vt 0.6431 0.6682
vt 0.6853 0.6542
vt 0.6878 0.5935
vt 0.6743 0.5429
vt 0.7924 0.5958
vt 0.7824 0.6436
vt 0.8128 0.6443
vt 0.8245 0.6071
vt 0.8197 0.5343
vt 0.8578 0.5682
vt 0.7439 0.6446
vt 0.7512 0.5909
vt 0.7600 0.5188
vt 0.8923 0.6573
vt 0.3548 0.5556
vt 0.3479 0.6111
vt 0.3506 0.6682
vt 0.3060 0.5935
vt 0.3085 0.6542
vt 0.3194 0.5429
vt 0.2014 0.5958
vt 0.1692 0.6071
vt 0.1809 0.6443
vt 0.2114 0.6436
vt 0.1741 0.5343
vt 0.1360 0.5682
vt 0.2499 0.6446
vt 0.2426 0.5909
vt 0.2337 0.5188
vt 0.1014 0.6573
vn 0.0000 0.8660 0.5000
vn -0.1625 0.8003 0.5771
vn -0.3275 0.9448 0.0000
vn 0.0000 1.0000 0.0000
vn 0.0000 0.4872 0.8733
vn 0.1270 0.4036 0.9061
vn 0.0000 0.0000 1.0000
vn 0.2220 0.0000 0.9750
vn -0.1674 0.2419 0.9557
vn -0.5696 0.6321 0.5253
vn 0.1356 0.0000 0.9908
vn -0.6526 0.7577 0.0000
vn 0.2355 0.7151 0.6581
vn 0.2623 0.0536 0.9635
vn 0.7325 -0.0087 0.6806
vn 0.7521 0.4636 0.4684
vn 0.3498 0.0000 0.9368
vn 0.7621 0.0000 0.6474
vn 0.2436 0.9698 0.0000
vn 0.7714 0.6363 0.0000
vn -0.0706 0.0000 0.9975
vn -0.2190 0.0877 0.9718
vn -0.3426 0.6856 0.6423
vn -0.3561 0.9344 0.0000
vn 0.9936 -0.1133 0.0000
vn 1.0000 0.0000 0.0000
vn 0.3275 0.9448 0.0000
vn 0.1625 0.8003 0.5771
vn -0.1270 0.4036 0.9061
vn -0.2220 0.0000 0.9750
vn 0.5696 0.6321 0.5253
vn 0.1674 0.2419 0.9557
vn -0.1356 0.0000 0.9908
vn 0.6526 0.7577 0.0000
vn -0.2355 0.7151 0.6581
vn -0.7521 0.4636 0.4684
vn -0.7325 -0.0087 0.6806
vn -0.2623 0.0536 0.9635
vn -0.7621 0.0000 0.6474
vn -0.3498 0.0000 0.9368
vn -0.2436 0.9698 0.0000
vn -0.7714 0.6363 0.0000
vn 0.0706 0.0000 0.9975
vn 0.2190 0.0877 0.9718
vn 0.3426 0.6856 0.6423
vn 0.3561 0.9344 0.0000
vn -0.9936 -0.1133 0.0000
vn -1.0000 0.0000 0.0000
vn 0.0000 -0.8660 0.5000
vn 0.0000 -1.0000 0.0000
vn -0.3275 -0.9448 0.0000
vn -0.1625 -0.8003 0.5771
vn 0.0000 -0.4872 0.8733
vn 0.1270 -0.4036 0.9061
vn -0.5696 -0.6321 0.5253
vn -0.1674 -0.2419 0.9557
vn -0.6526 -0.7577 0.0000
vn 0.2355 -0.7151 0.6581
vn 0.7521 -0.4636 0.4684
vn 0.7325 0.0087 0.6806
vn 0.2623 -0.0536 0.9635
vn 0.2436 -0.9698 0.0000
vn 0.7714 -0.6363 0.0000
vn -0.2190 -0.0877 0.9718
vn -0.3426 -0.6856 0.6423
vn -0.3561 -0.9344 0.0000
vn 0.9936 0.1133 0.0000
vn 0.1625 -0.8003 0.5771
vn 0.3275 -0.9448 0.0000
vn -0.1270 -0.4036 0.9061
vn 0.1674 -0.2419 0.9557
vn 0.5696 -0.6321 0.5253
vn 0.6526 -0.7577 0.0000
vn -0.2355 -0.7151 0.6581
vn -0.2623 -0.0536 0.9635
vn -0.7325 0.0087 0.6806
vn -0.7521 -0.4636 0.4684
vn -0.2436 -0.9698 0.0000
vn -0.7714 -0.6363 0.0000
vn 0.2190 -0.0877 0.9718
vn 0.3426 -0.6856 0.6423
vn 0.3561 -0.9344 0.0000
vn -0.9936 0.1133 0.0000
vn 0.0000 0.8660 -0.5000
vn -0.1625 0.8003 -0.5771
vn 0.0000 0.4872 -0.8733
vn 0.1270 0.4036 -0.9061
vn 0.0000 0.0000 -1.0000
vn 0.2220 0.0000 -0.9750
vn -0.5696 0.6321 -0.5253
vn -0.1674 0.2419 -0.9557
vn 0.1356 0.0000 -0.9908
vn 0.2355 0.7151 -0.6581
vn 0.7521 0.4636 -0.4684
vn 0.7325 -0.0087 -0.6806
vn 0.2623 0.0536 -0.9635
vn 0.7621 0.0000 -0.6474
vn 0.3498 0.0000 -0.9368
vn -0.0706 0.0000 -0.9975
vn -0.2190 0.0877 -0.9718
vn -0.3426 0.6856 -0.6423
vn 0.1625 0.8003 -0.5771
vn -0.1270 0.4036 -0.9061
vn -0.2220 0.0000 -0.9750
vn 0.1674 0.2419 -0.9557
vn 0.5696 0.6321 -0.5253
vn -0.1356 0.0000 -0.9908
vn -0.2355 0.7151 -0.6581
vn -0.2623 0.0536 -0.9635
vn -0.7325 -0.0087 -0.6806
vn -0.7521 0.4636 -0.4684
vn -0.3498 0.0000 -0.9368
vn -0.7621 0.0000 -0.6474
vn 0.0706 0.0000 -0.9975
vn 0.2190 0.0877 -0.9718
vn 0.3426 0.6856 -0.6423
vn 0.0000 -0.8660 -0.5000
vn -0.1625 -0.8003 -0.5771
vn 0.0000 -0.4872 -0.8733
vn 0.1270 -0.4036 -0.9061
vn -0.1674 -0.2419 -0.9557
vn -0.5696 -0.6321 -0.5253
vn 0.2355 -0.7151 -0.6581
vn 0.2623 -0.0536 -0.9635
vn 0.7325 0.0087 -0.6806
vn 0.7521 -0.4636 -0.4684
vn -0.2190 -0.0877 -0.9718
vn -0.3426 -0.6856 -0.6423
vn 0.1625 -0.8003 -0.5771
vn -0.1270 -0.4036 -0.9061
vn 0.5696 -0.6321 -0.5253
vn 0.1674 -0.2419 -0.9557
vn -0.2355 -0.7151 -0.6581
vn -0.7521 -0.4636 -0.4684
vn -0.7325 0.0087 -0.6806
vn -0.2623 -0.0536 -0.9635
vn 0.2190 -0.0877 -0.9718
vn 0.3426 -0.6856 -0.6423
usemtl None
s 1
f 11/1/1 1/2/2 80/3/3 85/4/4
f 12/5/5 2/6/6 1/2/2 11/1/1
f 40/7/7 25/8/8 2/6/6 12/5/5
f 1/2/2 2/6/6 4/9/9 3/10/10
f 2/6/6 25/8/8 28/11/11 4/9/9
f 80/3/3 1/2/2 3/10/10 81/12/12
f 8/13/13 7/14/14 6/15/15 5/16/16
f 7/14/14 34/17/17 31/18/18 6/15/15
f 83/19/19 8/13/13 5/16/16 82/20/20
f 35/21/21 10/22/22 4/9/9 28/11/11
f 10/22/22 9/23/23 3/10/10 4/9/9
f 9/23/23 8/13/13 83/19/19 66/24/24
f 3/10/10 9/23/23 66/24/24 81/12/12
f 7/14/14 8/13/13 9/23/23 10/22/22
f 34/17/17 7/14/14 10/22/22 35/21/21
f 82/20/20 5/16/16 84/25/25
f 130/26/26 84/25/25 31/18/18
f 5/16/16 6/15/15 84/25/25
f 6/15/15 31/18/18 84/25/25
f 11/1/1 85/4/4 86/27/27 13/28/28
f 12/5/5 11/1/1 13/28/28 14/29/29
f 40/7/7 12/5/5 14/29/29 43/30/30
f 13/28/28 15/31/31 16/32/32 14/29/29
f 14/29/29 16/32/32 46/33/33 43/30/30
f 86/27/27 87/34/34 15/31/31 13/28/28
f 20/35/35 17/36/36 18/37/37 19/38/38
f 19/38/38 18/37/37 49/39/39 52/40/40
f 89/41/41 88/42/42 17/36/36 20/35/35
f 53/43/43 46/33/33 16/32/32 22/44/44
f 22/44/44 16/32/32 15/31/31 21/45/45
f 21/45/45 79/46/46 89/41/41 20/35/35
f 15/31/31 87/34/34 79/46/46 21/45/45
f 19/38/38 22/44/44 21/45/45 20/35/35
f 52/40/40 53/43/43 22/44/44 19/38/38
f 88/42/42 90/47/47 17/36/36
f 137/48/48 49/39/39 90/47/47
f 17/36/36 90/47/47 18/37/37
f 18/37/37 90/47/47 49/39/39
f 38/49/49 132/50/50 126/51/51 23/52/52
f 39/53/53 38/49/49 23/52/52 24/54/54
f 40/7/7 39/53/53 24/54/54 25/8/8
f 23/52/52 26/55/55 27/56/56 24/54/54
f 24/54/54 27/56/56 28/11/11 25/8/8
f 126/51/51 127/57/57 26/55/55 23/52/52
f 33/58/58 29/59/59 30/60/60 32/61/61
f 32/61/61 30/60/60 31/18/18 34/17/17
f 129/62/62 128/63/63 29/59/59 33/58/58
f 35/21/21 28/11/11 27/56/56 37/64/64
f 37/64/64 27/56/56 26/55/55 36/65/65
f 36/65/65 106/66/66 129/62/62 33/58/58
f 26/55/55 127/57/57 106/66/66 36/65/65
f 32/61/61 37/64/64 36/65/65 33/58/58
f 34/17/17 35/21/21 37/64/64 32/61/61
f 128/63/63 131/67/67 29/59/59
f 130/26/26 31/18/18 131/67/67
f 29/59/59 131/67/67 30/60/60
f 30/60/60 131/67/67 31/18/18
f 38/49/49 41/68/68 133/69/69 132/50/50
f 39/53/53 42/70/70 41/68/68 38/49/49
f 40/7/7 43/30/30 42/70/70 39/53/53
f 41/68/68 42/70/70 45/71/71 44/72/72
f 42/70/70 43/30/30 46/33/33 45/71/71
f 133/69/69 41/68/68 44/72/72 134/73/73
f 51/74/74 50/75/75 48/76/76 47/77/77
f 50/75/75 52/40/40 49/39/39 48/76/76
f 136/78/78 51/74/74 47/77/77 135/79/79
f 53/43/43 55/80/80 45/71/71 46/33/33
f 55/80/80 54/81/81 44/72/72 45/71/71
f 54/81/81 51/74/74 136/78/78 125/82/82
f 44/72/72 54/81/81 125/82/82 134/73/73
f 50/75/75 51/74/74 54/81/81 55/80/80
f 52/40/40 50/75/75 55/80/80 53/43/43
f 135/79/79 47/77/77 138/83/83
f 137/48/48 138/83/83 49/39/39
f 47/77/77 48/76/76 138/83/83
f 48/76/76 49/39/39 138/83/83
f 67/84/84 85/85/4 80/86/3 56/87/85
f 68/88/86 67/84/84 56/87/85 57/89/87
f 109/90/88 68/88/86 57/89/87 93/91/89
f 56/87/85 58/92/90 59/93/91 57/89/87
f 57/89/87 59/93/91 96/94/92 93/91/89
f 80/86/3 81/95/12 58/92/90 56/87/85
f 63/96/93 60/97/94 61/98/95 62/99/96
f 62/99/96 61/98/95 99/100/97 102/101/98
f 83/102/19 82/103/20 60/97/94 63/96/93
f 103/104/99 96/94/92 59/93/91 65/105/100
f 65/105/100 59/93/91 58/92/90 64/106/101
f 64/106/101 66/107/24 83/102/19 63/96/93
f 58/92/90 81/95/12 66/107/24 64/106/101
f 62/99/96 65/105/100 64/106/101 63/96/93
f 102/101/98 103/104/99 65/105/100 62/99/96
f 82/103/20 84/108/25 60/97/94
f 130/109/26 99/100/97 84/108/25
f 60/97/94 84/108/25 61/98/95
f 61/98/95 84/108/25 99/100/97
f 67/84/84 69/110/102 86/111/27 85/85/4
f 68/88/86 70/112/103 69/110/102 67/84/84
f 109/90/88 112/113/104 70/112/103 68/88/86
f 69/110/102 70/112/103 72/114/105 71/115/106
f 70/112/103 112/113/104 115/116/107 72/114/105
f 86/111/27 69/110/102 71/115/106 87/117/34
f 76/118/108 75/119/109 74/120/110 73/121/111
f 75/119/109 121/122/112 118/123/113 74/120/110
f 89/124/41 76/118/108 73/121/111 88/125/42
f 122/126/114 78/127/115 72/114/105 115/116/107
f 78/127/115 77/128/116 71/115/106 72/114/105
f 77/128/116 76/118/108 89/124/41 79/129/46
f 71/115/106 77/128/116 79/129/46 87/117/34
f 75/119/109 76/118/108 77/128/116 78/127/115
f 121/122/112 75/119/109 78/127/115 122/126/114
f 88/125/42 73/121/111 90/130/47
f 137/131/48 90/130/47 118/123/113
f 73/121/111 74/120/110 90/130/47
f 74/120/110 118/123/113 90/130/47
f 107/132/117 91/133/118 126/134/51 132/135/50
f 108/136/119 92/137/120 91/133/118 107/132/117
f 109/90/88 93/91/89 92/137/120 108/136/119
f 91/133/118 92/137/120 95/138/121 94/139/122
f 92/137/120 93/91/89 96/94/92 95/138/121
f 126/134/51 91/133/118 94/139/122 127/140/57
f 101/141/123 100/142/124 98/143/125 97/144/126
f 100/142/124 102/101/98 99/100/97 98/143/125
f 129/145/62 101/141/123 97/144/126 128/146/63
f 103/104/99 105/147/127 95/138/121 96/94/92
f 105/147/127 104/148/128 94/139/122 95/138/121
f 104/148/128 101/141/123 129/145/62 106/149/66
f 94/139/122 104/148/128 106/149/66 127/140/57
f 100/142/124 101/141/123 104/148/128 105/147/127
f 102/101/98 100/142/124 105/147/127 103/104/99
f 128/146/63 97/144/126 131/150/67
f 130/109/26 131/150/67 99/100/97
f 97/144/126 98/143/125 131/150/67
f 98/143/125 99/100/97 131/150/67
f 107/132/117 132/135/50 133/151/69 110/152/129
f 108/136/119 107/132/117 110/152/129 111/153/130
f 109/90/88 108/136/119 111/153/130 112/113/104
f 110/152/129 113/154/131 114/155/132 111/153/130
f 111/153/130 114/155/132 115/116/107 112/113/104
f 133/151/69 134/156/73 113/154/131 110/152/129
f 120/157/133 116/158/134 117/159/135 119/160/136
f 119/160/136 117/159/135 118/123/113 121/122/112
f 136/161/78 135/162/79 116/158/134 120/157/133
f 122/126/114 115/116/107 114/155/132 124/163/137
f 124/163/137 114/155/132 113/154/131 123/164/138
f 123/164/138 125/165/82 136/161/78 120/157/133
f 113/154/131 134/156/73 125/165/82 123/164/138
f 119/160/136 124/163/137 123/164/138 120/157/133
f 121/122/112 122/126/114 124/163/137 119/160/136
f 135/162/79 138/166/83 116/158/134
f 137/131/48 118/123/113 138/166/83
f 116/158/134 138/166/83 117/159/135
f 117/159/135 138/166/83 118/123/113
